<mxfile host="app.diagrams.net" modified="2023-12-14T21:27:07.419Z" agent="Mozilla/5.0 (Macintosh; Intel Mac OS X 10.15; rv:121.0) Gecko/20100101 Firefox/121.0" etag="-Optm9L4bsznsKRr6wfS" version="22.1.9" type="github">
  <diagram name="Page-1" id="2YBvvXClWsGukQMizWep">
    <mxGraphModel dx="1706" dy="989" grid="1" gridSize="10" guides="1" tooltips="1" connect="1" arrows="1" fold="1" page="1" pageScale="1" pageWidth="850" pageHeight="1100" math="0" shadow="0">
      <root>
        <mxCell id="0" />
        <mxCell id="1" parent="0" />
        <mxCell id="IQvJlNmxwXKHrSr8fV7O-1" value="&lt;div&gt;GAMEPLAY LOOP&lt;/div&gt;&lt;div&gt;&lt;br&gt;&lt;/div&gt;&lt;div&gt;Kill enemies to gain horizontal speed&lt;/div&gt;" style="text;strokeColor=none;fillColor=none;html=1;fontSize=16;fontStyle=1;verticalAlign=middle;align=center;" vertex="1" parent="1">
          <mxGeometry x="680" y="30" width="310" height="80" as="geometry" />
        </mxCell>
        <mxCell id="IQvJlNmxwXKHrSr8fV7O-50" style="edgeStyle=none;curved=1;rounded=0;orthogonalLoop=1;jettySize=auto;html=1;exitX=0.25;exitY=0;exitDx=0;exitDy=0;fontSize=12;startSize=8;endSize=8;entryX=1;entryY=0;entryDx=0;entryDy=0;" edge="1" parent="1" source="IQvJlNmxwXKHrSr8fV7O-3" target="IQvJlNmxwXKHrSr8fV7O-55">
          <mxGeometry relative="1" as="geometry">
            <mxPoint x="560" y="250" as="targetPoint" />
            <mxPoint x="630" y="420" as="sourcePoint" />
          </mxGeometry>
        </mxCell>
        <mxCell id="IQvJlNmxwXKHrSr8fV7O-51" style="edgeStyle=none;curved=1;rounded=0;orthogonalLoop=1;jettySize=auto;html=1;entryX=1;entryY=0;entryDx=0;entryDy=0;fontSize=12;startSize=8;endSize=8;exitX=0;exitY=0;exitDx=0;exitDy=0;" edge="1" parent="1" source="IQvJlNmxwXKHrSr8fV7O-3" target="IQvJlNmxwXKHrSr8fV7O-42">
          <mxGeometry relative="1" as="geometry">
            <mxPoint x="660" y="330" as="sourcePoint" />
          </mxGeometry>
        </mxCell>
        <mxCell id="IQvJlNmxwXKHrSr8fV7O-3" value="&lt;div&gt;Passive&lt;/div&gt;&lt;div&gt;&lt;br&gt;&lt;/div&gt;&lt;div&gt;(defense)&lt;br&gt;&lt;/div&gt;" style="rounded=1;whiteSpace=wrap;html=1;fontSize=16;" vertex="1" parent="1">
          <mxGeometry x="580" y="420" width="120" height="80" as="geometry" />
        </mxCell>
        <mxCell id="IQvJlNmxwXKHrSr8fV7O-7" style="edgeStyle=none;curved=1;rounded=0;orthogonalLoop=1;jettySize=auto;html=1;entryX=1;entryY=0.5;entryDx=0;entryDy=0;fontSize=12;startSize=8;endSize=8;" edge="1" parent="1" source="IQvJlNmxwXKHrSr8fV7O-6" target="IQvJlNmxwXKHrSr8fV7O-3">
          <mxGeometry relative="1" as="geometry" />
        </mxCell>
        <mxCell id="IQvJlNmxwXKHrSr8fV7O-8" style="edgeStyle=none;curved=1;rounded=0;orthogonalLoop=1;jettySize=auto;html=1;fontSize=12;startSize=8;endSize=8;" edge="1" parent="1" source="IQvJlNmxwXKHrSr8fV7O-6" target="IQvJlNmxwXKHrSr8fV7O-9">
          <mxGeometry relative="1" as="geometry">
            <mxPoint x="910" y="440" as="targetPoint" />
          </mxGeometry>
        </mxCell>
        <mxCell id="IQvJlNmxwXKHrSr8fV7O-6" value="&lt;div&gt;Ultimate&lt;/div&gt;&lt;div&gt;&lt;br&gt;&lt;/div&gt;&lt;div&gt;(Team buffs &amp;amp; Enemy debuffs)&lt;br&gt;&lt;/div&gt;" style="rounded=1;whiteSpace=wrap;html=1;fontSize=16;" vertex="1" parent="1">
          <mxGeometry x="950" y="420" width="120" height="90" as="geometry" />
        </mxCell>
        <mxCell id="IQvJlNmxwXKHrSr8fV7O-14" style="edgeStyle=none;curved=1;rounded=0;orthogonalLoop=1;jettySize=auto;html=1;exitX=0;exitY=0.25;exitDx=0;exitDy=0;entryX=1;entryY=0.25;entryDx=0;entryDy=0;fontSize=12;startSize=8;endSize=8;" edge="1" parent="1" source="IQvJlNmxwXKHrSr8fV7O-9" target="IQvJlNmxwXKHrSr8fV7O-11">
          <mxGeometry relative="1" as="geometry" />
        </mxCell>
        <mxCell id="IQvJlNmxwXKHrSr8fV7O-53" style="edgeStyle=none;curved=1;rounded=0;orthogonalLoop=1;jettySize=auto;html=1;exitX=1;exitY=0;exitDx=0;exitDy=0;entryX=0;entryY=0;entryDx=0;entryDy=0;fontSize=12;startSize=8;endSize=8;" edge="1" parent="1" source="IQvJlNmxwXKHrSr8fV7O-9" target="IQvJlNmxwXKHrSr8fV7O-25">
          <mxGeometry relative="1" as="geometry" />
        </mxCell>
        <mxCell id="IQvJlNmxwXKHrSr8fV7O-9" value="&lt;div&gt;Teleport&lt;/div&gt;&lt;div&gt;&lt;br&gt;&lt;/div&gt;&lt;div&gt;(Horizontal traversal)&lt;br&gt;&lt;/div&gt;" style="rounded=1;whiteSpace=wrap;html=1;fontSize=16;arcSize=13;" vertex="1" parent="1">
          <mxGeometry x="950" y="620" width="120" height="100" as="geometry" />
        </mxCell>
        <mxCell id="IQvJlNmxwXKHrSr8fV7O-15" style="edgeStyle=none;curved=1;rounded=0;orthogonalLoop=1;jettySize=auto;html=1;exitX=1;exitY=0.75;exitDx=0;exitDy=0;entryX=0;entryY=0.75;entryDx=0;entryDy=0;fontSize=12;startSize=8;endSize=8;" edge="1" parent="1" source="IQvJlNmxwXKHrSr8fV7O-11" target="IQvJlNmxwXKHrSr8fV7O-9">
          <mxGeometry relative="1" as="geometry" />
        </mxCell>
        <mxCell id="IQvJlNmxwXKHrSr8fV7O-52" style="edgeStyle=none;curved=1;rounded=0;orthogonalLoop=1;jettySize=auto;html=1;exitX=0;exitY=0;exitDx=0;exitDy=0;entryX=1;entryY=0;entryDx=0;entryDy=0;fontSize=12;startSize=8;endSize=8;" edge="1" parent="1" source="IQvJlNmxwXKHrSr8fV7O-11" target="IQvJlNmxwXKHrSr8fV7O-34">
          <mxGeometry relative="1" as="geometry" />
        </mxCell>
        <mxCell id="IQvJlNmxwXKHrSr8fV7O-11" value="&lt;div&gt;Blade Attack&lt;/div&gt;&lt;div&gt;&lt;br&gt;&lt;/div&gt;&lt;div&gt;(Damage)&lt;br&gt;&lt;/div&gt;" style="rounded=1;whiteSpace=wrap;html=1;fontSize=16;" vertex="1" parent="1">
          <mxGeometry x="580" y="625" width="120" height="95" as="geometry" />
        </mxCell>
        <mxCell id="IQvJlNmxwXKHrSr8fV7O-22" value="&lt;div&gt;&lt;br&gt;&lt;/div&gt;&lt;div&gt;&lt;br&gt;&lt;/div&gt;" style="text;html=1;strokeColor=none;fillColor=none;align=center;verticalAlign=middle;whiteSpace=wrap;rounded=0;fontSize=16;" vertex="1" parent="1">
          <mxGeometry x="1070" y="425" width="60" height="30" as="geometry" />
        </mxCell>
        <mxCell id="IQvJlNmxwXKHrSr8fV7O-25" value="in-air + jump" style="swimlane;fontStyle=0;childLayout=stackLayout;horizontal=1;startSize=30;horizontalStack=0;resizeParent=1;resizeParentMax=0;resizeLast=0;collapsible=1;marginBottom=0;whiteSpace=wrap;html=1;fontSize=16;" vertex="1" parent="1">
          <mxGeometry x="1120" y="620" width="140" height="190" as="geometry" />
        </mxCell>
        <mxCell id="IQvJlNmxwXKHrSr8fV7O-31" value="&lt;ul&gt;&lt;li&gt;Hold a tiny bit to teleport&lt;br&gt;&lt;/li&gt;&lt;li&gt;&lt;div&gt;Slows down player after teleportation&lt;/div&gt;&lt;/li&gt;&lt;/ul&gt;" style="text;strokeColor=none;fillColor=none;html=1;whiteSpace=wrap;verticalAlign=middle;overflow=hidden;fontSize=16;" vertex="1" parent="IQvJlNmxwXKHrSr8fV7O-25">
          <mxGeometry y="30" width="140" height="160" as="geometry" />
        </mxCell>
        <mxCell id="IQvJlNmxwXKHrSr8fV7O-34" value="in-air + spin" style="swimlane;fontStyle=0;childLayout=stackLayout;horizontal=1;startSize=30;horizontalStack=0;resizeParent=1;resizeParentMax=0;resizeLast=0;collapsible=1;marginBottom=0;whiteSpace=wrap;html=1;fontSize=16;" vertex="1" parent="1">
          <mxGeometry x="400" y="625" width="140" height="180" as="geometry" />
        </mxCell>
        <mxCell id="IQvJlNmxwXKHrSr8fV7O-39" value="&lt;ul&gt;&lt;li&gt;Homing attack on close-by-in-front enemy &lt;br&gt;&lt;/li&gt;&lt;/ul&gt;" style="text;strokeColor=none;fillColor=none;html=1;whiteSpace=wrap;verticalAlign=middle;overflow=hidden;fontSize=16;" vertex="1" parent="IQvJlNmxwXKHrSr8fV7O-34">
          <mxGeometry y="30" width="140" height="150" as="geometry" />
        </mxCell>
        <mxCell id="IQvJlNmxwXKHrSr8fV7O-42" value="in the dark" style="swimlane;fontStyle=0;childLayout=stackLayout;horizontal=1;startSize=30;horizontalStack=0;resizeParent=1;resizeParentMax=0;resizeLast=0;collapsible=1;marginBottom=0;whiteSpace=wrap;html=1;fontSize=16;" vertex="1" parent="1">
          <mxGeometry x="410" y="380" width="140" height="170" as="geometry" />
        </mxCell>
        <mxCell id="IQvJlNmxwXKHrSr8fV7O-60" style="edgeStyle=none;curved=1;rounded=0;orthogonalLoop=1;jettySize=auto;html=1;exitX=0.75;exitY=0;exitDx=0;exitDy=0;fontSize=12;startSize=8;endSize=8;" edge="1" parent="IQvJlNmxwXKHrSr8fV7O-42" source="IQvJlNmxwXKHrSr8fV7O-46" target="IQvJlNmxwXKHrSr8fV7O-46">
          <mxGeometry relative="1" as="geometry" />
        </mxCell>
        <mxCell id="IQvJlNmxwXKHrSr8fV7O-46" value="&lt;ul&gt;&lt;li&gt;Partial Translucency (as a visual)&lt;br&gt;&lt;/li&gt;&lt;li&gt;Partial or full Immunity to range attacks&lt;br&gt;&lt;/li&gt;&lt;/ul&gt;" style="text;strokeColor=none;fillColor=none;html=1;whiteSpace=wrap;verticalAlign=middle;overflow=hidden;fontSize=16;" vertex="1" parent="IQvJlNmxwXKHrSr8fV7O-42">
          <mxGeometry y="30" width="140" height="140" as="geometry" />
        </mxCell>
        <mxCell id="IQvJlNmxwXKHrSr8fV7O-48" value="teleport + jump" style="swimlane;fontStyle=0;childLayout=stackLayout;horizontal=1;startSize=30;horizontalStack=0;resizeParent=1;resizeParentMax=0;resizeLast=0;collapsible=1;marginBottom=0;whiteSpace=wrap;html=1;fontSize=16;" vertex="1" parent="1">
          <mxGeometry x="1090" y="220" width="250" height="290" as="geometry" />
        </mxCell>
        <mxCell id="IQvJlNmxwXKHrSr8fV7O-49" value="&lt;ul&gt;&lt;li&gt;Speed increase&lt;/li&gt;&lt;li&gt;Brings the night&lt;/li&gt;&lt;ul&gt;&lt;li&gt;Activates passive for you and your teamates&lt;/li&gt;&lt;li&gt;Blinds enemies&lt;br&gt;&lt;/li&gt;&lt;li&gt;Changes world background&lt;/li&gt;&lt;/ul&gt;&lt;/ul&gt;" style="text;strokeColor=none;fillColor=none;html=1;whiteSpace=wrap;verticalAlign=middle;overflow=hidden;fontSize=16;" vertex="1" parent="IQvJlNmxwXKHrSr8fV7O-48">
          <mxGeometry y="30" width="250" height="260" as="geometry" />
        </mxCell>
        <mxCell id="IQvJlNmxwXKHrSr8fV7O-54" style="edgeStyle=none;curved=1;rounded=0;orthogonalLoop=1;jettySize=auto;html=1;exitX=1;exitY=0;exitDx=0;exitDy=0;fontSize=12;startSize=8;endSize=8;entryX=0;entryY=0;entryDx=0;entryDy=0;" edge="1" parent="1" source="IQvJlNmxwXKHrSr8fV7O-6" target="IQvJlNmxwXKHrSr8fV7O-48">
          <mxGeometry relative="1" as="geometry">
            <mxPoint x="1020" y="210" as="targetPoint" />
          </mxGeometry>
        </mxCell>
        <mxCell id="IQvJlNmxwXKHrSr8fV7O-55" value="&lt;div&gt;anytime&lt;/div&gt;" style="swimlane;fontStyle=0;childLayout=stackLayout;horizontal=1;startSize=30;horizontalStack=0;resizeParent=1;resizeParentMax=0;resizeLast=0;collapsible=1;marginBottom=0;whiteSpace=wrap;html=1;fontSize=16;" vertex="1" parent="1">
          <mxGeometry x="410" y="160" width="140" height="180" as="geometry" />
        </mxCell>
        <mxCell id="IQvJlNmxwXKHrSr8fV7O-59" value="&lt;ul&gt;&lt;li&gt;particles in dark enough areas that can activate passive&lt;/li&gt;&lt;li&gt;Night vision&lt;/li&gt;&lt;/ul&gt;" style="text;strokeColor=none;fillColor=none;html=1;whiteSpace=wrap;verticalAlign=middle;overflow=hidden;fontSize=16;" vertex="1" parent="IQvJlNmxwXKHrSr8fV7O-55">
          <mxGeometry y="30" width="140" height="150" as="geometry" />
        </mxCell>
        <mxCell id="IQvJlNmxwXKHrSr8fV7O-62" value="&lt;div&gt;Stinger&lt;/div&gt;&lt;div&gt;&lt;br&gt;&lt;/div&gt;&lt;div&gt;(Damage &amp;amp; horizontal traversal)&lt;br&gt;&lt;/div&gt;" style="rounded=1;whiteSpace=wrap;html=1;fontSize=16;" vertex="1" parent="1">
          <mxGeometry x="757.5" y="830" width="155" height="120" as="geometry" />
        </mxCell>
      </root>
    </mxGraphModel>
  </diagram>
</mxfile>
